<svg width="36" height="44" viewBox="0 0 36 44" fill="none" xmlns="http://www.w3.org/2000/svg">
<path d="M6.42626 8.26667L16.1513 0.777322H16.1516C16.8072 0.273296 17.6114 0 18.4389 0C19.2664 0 20.0706 0.273325 20.7263 0.777322L30.4513 8.26667L35.4513 12.1111L35.4516 12.1113C35.737 12.3047 35.9298 12.607 35.9842 12.9472C36.0389 13.2871 35.9502 13.6346 35.7395 13.9073C35.5286 14.1798 35.2144 14.3534 34.8712 14.3869C34.5277 14.42 34.1859 14.3105 33.9264 14.0834L30.939 11.8492V25.5797C30.939 26.573 30.5439 27.5252 29.8408 28.2277C29.1374 28.9298 28.1837 29.3243 27.189 29.3243H9.68898C8.69426 29.3243 7.74062 28.9298 7.03719 28.2277C6.33406 27.5253 5.93897 26.573 5.93897 25.5797V11.8492L2.95154 14.1459C2.59691 14.386 2.14404 14.4281 1.75147 14.2576C1.35861 14.0868 1.08071 13.7274 1.0149 13.305C0.949052 12.8823 1.10418 12.4555 1.42645 12.1738L6.42626 8.26667ZM8.43883 25.5799C8.43883 25.9109 8.57053 26.2285 8.80491 26.4626C9.03928 26.6966 9.35736 26.8281 9.68884 26.8281H27.1889C27.5203 26.8281 27.8384 26.6966 28.0728 26.4626C28.3072 26.2285 28.4389 25.9109 28.4389 25.5799V9.8651L19.2017 2.77534V2.77506C18.983 2.60705 18.7151 2.51594 18.4391 2.51594C18.1632 2.51594 17.8953 2.60705 17.6766 2.77506L8.43941 9.86511L8.43883 25.5799Z" fill="white"/>
<path d="M9.30371 37.4648L9.01807 39.0898H5.34912L5.63477 37.4648H9.30371ZM6.88525 33.7578L5.28564 43H3.32422L4.91748 33.7578H6.88525ZM11.3096 33.7578L9.70361 43H7.74854L9.35449 33.7578H11.3096ZM11.3286 39.8389L11.3921 39.3057C11.4471 38.8656 11.5529 38.4466 11.7095 38.0488C11.866 37.651 12.0734 37.2956 12.3315 36.9824C12.5939 36.665 12.9113 36.4196 13.2837 36.2461C13.6561 36.0726 14.0856 35.9922 14.5723 36.0049C15.0378 36.0133 15.425 36.1128 15.7339 36.3032C16.047 36.4894 16.2925 36.7391 16.4702 37.0522C16.6522 37.3654 16.7728 37.7166 16.832 38.106C16.8913 38.491 16.8997 38.8888 16.8574 39.2993L16.7939 39.8452C16.7389 40.2769 16.6331 40.6937 16.4766 41.0957C16.3242 41.4935 16.1147 41.849 15.8481 42.1621C15.5858 42.471 15.2705 42.7122 14.9023 42.8857C14.5342 43.0592 14.1068 43.1396 13.6201 43.127C13.1546 43.1185 12.7653 43.0212 12.4521 42.835C12.1432 42.6445 11.8978 42.3949 11.7158 42.0859C11.5381 41.7728 11.4175 41.4237 11.354 41.0386C11.2948 40.6493 11.2863 40.2493 11.3286 39.8389ZM13.29 39.2993L13.2266 39.8516C13.2181 39.9785 13.2033 40.1351 13.1821 40.3213C13.1652 40.5075 13.1652 40.6958 13.1821 40.8862C13.1991 41.0767 13.252 41.2375 13.3408 41.3687C13.4339 41.4956 13.5799 41.5633 13.7788 41.5718C14.0073 41.5887 14.1914 41.54 14.3311 41.4258C14.4749 41.3115 14.585 41.1634 14.6611 40.9814C14.7415 40.7952 14.7987 40.6006 14.8325 40.3975C14.8664 40.1943 14.8939 40.006 14.915 39.8325L14.9785 39.2866C14.987 39.1639 14.9997 39.0073 15.0166 38.8169C15.0335 38.6265 15.0314 38.4382 15.0103 38.252C14.9933 38.0658 14.9383 37.9071 14.8452 37.7759C14.7563 37.6447 14.6125 37.5728 14.4136 37.5601C14.1935 37.5474 14.0137 37.6003 13.874 37.7188C13.7386 37.833 13.6307 37.9832 13.5503 38.1694C13.4699 38.3556 13.4106 38.5503 13.3726 38.7534C13.3345 38.9565 13.307 39.1385 13.29 39.2993ZM20.0376 37.6743L19.1108 43H17.2256L18.4189 36.1318H20.1772L20.0376 37.6743ZM19.5171 39.3311L19.0918 39.3564C19.1214 38.9883 19.187 38.6074 19.2886 38.2139C19.3901 37.8161 19.5382 37.4479 19.7329 37.1094C19.9276 36.7666 20.1794 36.4937 20.4883 36.2905C20.8014 36.0832 21.1823 35.9858 21.6309 35.9985C21.9567 36.007 22.2148 36.0895 22.4053 36.2461C22.5999 36.3984 22.7438 36.5952 22.8369 36.8364C22.93 37.0776 22.985 37.3379 23.002 37.6172C23.0231 37.8923 23.0189 38.1589 22.9893 38.417L22.2275 43H20.3423L21.0596 38.6582C21.0765 38.5186 21.0892 38.3641 21.0977 38.1948C21.1104 38.0256 21.0871 37.8796 21.0278 37.7568C20.9728 37.6341 20.8459 37.5685 20.647 37.5601C20.4354 37.5516 20.2619 37.6087 20.1265 37.7314C19.991 37.8542 19.881 38.0129 19.7964 38.2075C19.716 38.3979 19.6546 38.5947 19.6123 38.7979C19.57 39.001 19.5382 39.1787 19.5171 39.3311ZM22.6782 39.2422L22.145 39.2993C22.1746 38.9396 22.236 38.5651 22.3291 38.1758C22.4264 37.7865 22.5682 37.4268 22.7544 37.0967C22.9406 36.7624 23.186 36.4937 23.4907 36.2905C23.7954 36.0874 24.1699 35.9901 24.6143 35.9985C24.974 36.007 25.2575 36.0959 25.4648 36.2651C25.6764 36.4302 25.8288 36.646 25.9219 36.9126C26.015 37.175 26.07 37.4585 26.0869 37.7632C26.1038 38.0679 26.0975 38.3641 26.0679 38.6519L25.3442 43H23.4526L24.1699 38.6455C24.1826 38.5101 24.1953 38.3577 24.208 38.1885C24.2207 38.0192 24.1974 37.8732 24.1382 37.7505C24.0789 37.6278 23.952 37.5643 23.7573 37.5601C23.55 37.5601 23.3807 37.6172 23.2495 37.7314C23.1226 37.8457 23.0189 37.9917 22.9385 38.1694C22.8623 38.3472 22.8052 38.5334 22.7671 38.728C22.7332 38.9227 22.7036 39.0941 22.6782 39.2422ZM29.4131 43.127C28.9561 43.1185 28.5604 43.0339 28.2261 42.873C27.896 42.708 27.6273 42.4816 27.4199 42.1938C27.2168 41.9061 27.075 41.576 26.9946 41.2036C26.9142 40.8312 26.8931 40.4292 26.9312 39.9976L27.0137 39.3501C27.0687 38.8973 27.1702 38.4678 27.3184 38.0615C27.4707 37.6553 27.6759 37.2956 27.9341 36.9824C28.1922 36.665 28.5054 36.4196 28.8735 36.2461C29.2459 36.0726 29.686 35.9901 30.1938 35.9985C30.6593 36.0112 31.0402 36.1128 31.3364 36.3032C31.6369 36.4937 31.8654 36.7454 32.022 37.0586C32.1828 37.3717 32.2843 37.723 32.3267 38.1123C32.369 38.4974 32.3669 38.891 32.3203 39.293L32.187 40.2007H27.6294L27.8579 38.8994L30.5112 38.9058L30.5493 38.6963C30.5747 38.5312 30.5853 38.3641 30.5811 38.1948C30.5811 38.0213 30.5409 37.8753 30.4604 37.7568C30.3843 37.6383 30.2404 37.5706 30.0288 37.5537C29.7876 37.5452 29.5951 37.5981 29.4512 37.7124C29.3115 37.8267 29.2057 37.979 29.1338 38.1694C29.0618 38.3556 29.009 38.5545 28.9751 38.7661C28.9455 38.9735 28.9201 39.1681 28.8989 39.3501L28.8228 40.0039C28.8016 40.1859 28.791 40.3657 28.791 40.5435C28.791 40.7212 28.8143 40.8862 28.8608 41.0386C28.9074 41.1867 28.9899 41.3094 29.1084 41.4067C29.2269 41.4998 29.4004 41.5506 29.6289 41.5591C29.9082 41.5675 30.1685 41.5189 30.4097 41.4131C30.6551 41.3031 30.8794 41.1549 31.0825 40.9688L31.749 42.1685C31.5755 42.4012 31.3576 42.5895 31.0952 42.7334C30.8371 42.873 30.5599 42.9746 30.2637 43.0381C29.9717 43.1016 29.6882 43.1312 29.4131 43.127Z" fill="white"/>
</svg>
