<svg width="62" height="41" viewBox="0 0 62 41" fill="none" xmlns="http://www.w3.org/2000/svg">
<path d="M17.7937 14.8997C17.0527 14.8997 16.342 14.6052 15.8182 14.0814C15.2942 13.5574 15 12.847 15 12.106C15 11.3649 15.2942 10.6546 15.8182 10.1305C16.342 9.60673 17.0527 9.31227 17.7937 9.31227C18.5345 9.31227 19.2451 9.60675 19.7689 10.1305C20.2929 10.6546 20.5871 11.3649 20.5871 12.106C20.5871 12.847 20.2929 13.5574 19.7689 14.0814C19.2451 14.6052 18.5345 14.8997 17.7937 14.8997V14.8997ZM17.7937 11.1747C17.5466 11.1747 17.3096 11.2729 17.1351 11.4474C16.9604 11.6222 16.8624 11.8589 16.8624 12.106C16.8624 12.3531 16.9604 12.5898 17.1351 12.7646C17.3096 12.9391 17.5466 13.0373 17.7937 13.0373C18.0405 13.0373 18.2775 12.9391 18.452 12.7646C18.6268 12.5898 18.7248 12.3531 18.7248 12.106C18.7248 11.8589 18.6268 11.6222 18.452 11.4474C18.2775 11.2729 18.0405 11.1747 17.7937 11.1747Z" fill="white"/>
<path d="M45.7299 14.8997H25.243C24.2448 14.8997 23.3226 14.3672 22.8235 13.5028C22.3244 12.6384 22.3244 11.5736 22.8235 10.7092C23.3226 9.84471 24.2448 9.31234 25.243 9.31234H45.7299C46.7281 9.31234 47.6503 9.84476 48.1493 10.7092C48.6484 11.5736 48.6484 12.6384 48.1493 13.5028C47.6502 14.3673 46.7281 14.8997 45.7299 14.8997ZM45.7299 11.1747H25.243C24.9103 11.1747 24.6027 11.3521 24.4363 11.6405C24.27 11.9285 24.27 12.2835 24.4363 12.5715C24.6027 12.8598 24.9103 13.0373 25.243 13.0373H45.7299C46.0626 13.0373 46.3702 12.8598 46.5365 12.5715C46.7029 12.2834 46.7029 11.9285 46.5365 11.6405C46.3702 11.3521 46.0626 11.1747 45.7299 11.1747Z" fill="white"/>
<path d="M17.7937 24.2119C17.0527 24.2119 16.342 23.9177 15.8182 23.3937C15.2942 22.8699 15 22.1593 15 21.4182C15 20.6774 15.2942 19.9668 15.8182 19.4428C16.342 18.919 17.0527 18.6245 17.7937 18.6245C18.5345 18.6245 19.2451 18.919 19.7689 19.4428C20.2929 19.9668 20.5871 20.6774 20.5871 21.4182C20.5871 22.1593 20.2929 22.8699 19.7689 23.3937C19.2451 23.9177 18.5345 24.2119 17.7937 24.2119V24.2119ZM17.7937 20.4869V20.4872C17.5466 20.4872 17.3096 20.5852 17.1351 20.7599C16.9604 20.9344 16.8624 21.1714 16.8624 21.4182C16.8624 21.6653 16.9604 21.902 17.1351 22.0768C17.3096 22.2513 17.5466 22.3496 17.7937 22.3496C18.0405 22.3496 18.2775 22.2513 18.452 22.0768C18.6268 21.902 18.7248 21.6653 18.7248 21.4182C18.7248 21.1714 18.6268 20.9344 18.452 20.7599C18.2775 20.5852 18.0405 20.4872 17.7937 20.4872V20.4869Z" fill="white"/>
<path d="M25.243 18.6248H45.7299C46.7281 18.6248 47.6503 19.1575 48.1493 20.0217C48.6484 20.8861 48.6484 21.9509 48.1493 22.8153C47.6502 23.6798 46.7281 24.2122 45.7299 24.2122H25.243C24.2448 24.2122 23.3226 23.6797 22.8235 22.8153C22.3244 21.9509 22.3244 20.8861 22.8235 20.0217C23.3226 19.1575 24.2448 18.6248 25.243 18.6248V18.6248ZM25.243 22.3498H45.7299C46.0626 22.3498 46.3702 22.1723 46.5365 21.8843C46.7029 21.596 46.7029 21.241 46.5365 20.953C46.3702 20.6649 46.0626 20.4875 45.7299 20.4875H25.243C24.9103 20.4875 24.6027 20.6649 24.4363 20.953C24.27 21.2411 24.27 21.596 24.4363 21.8843C24.6027 22.1723 24.9103 22.3498 25.243 22.3498V22.3498Z" fill="white"/>
<path d="M17.7937 5.5874C17.0527 5.5874 16.342 5.29292 15.8182 4.76915C15.2942 4.24512 15 3.53449 15 2.79371C15 2.05268 15.2942 1.34205 15.8182 0.818264C16.342 0.294229 17.0527 1.65019e-05 17.7937 1.65019e-05C18.5345 1.65019e-05 19.2451 0.294242 19.7689 0.818264C20.2929 1.34205 20.5871 2.05268 20.5871 2.79371C20.5871 3.53449 20.2929 4.24512 19.7689 4.76915C19.2451 5.29294 18.5345 5.5874 17.7937 5.5874ZM17.7937 1.86241C17.5466 1.86241 17.3096 1.96066 17.1351 2.13517C16.9604 2.30993 16.8624 2.54664 16.8624 2.79373C16.8624 3.04057 16.9604 3.27753 17.1351 3.45205C17.3096 3.62681 17.5466 3.7248 17.7937 3.7248C18.0405 3.7248 18.2775 3.62681 18.452 3.45205C18.6268 3.27754 18.7248 3.04057 18.7248 2.79373C18.7248 2.54665 18.6268 2.30994 18.452 2.13517C18.2775 1.96066 18.0405 1.86241 17.7937 1.86241Z" fill="white"/>
<path d="M45.7299 5.5874H25.243C24.2448 5.5874 23.3226 5.05473 22.8235 4.19059C22.3244 3.32615 22.3244 2.26133 22.8235 1.39689C23.3226 0.532455 24.2448 8.01393e-05 25.243 8.01393e-05H45.7299C46.7281 8.01393e-05 47.6503 0.532505 48.1493 1.39689C48.6484 2.26133 48.6484 3.32615 48.1493 4.19059C47.6502 5.05477 46.7281 5.5874 45.7299 5.5874ZM45.7299 1.86241H25.243C24.9103 1.86241 24.6027 2.03989 24.4363 2.32795C24.27 2.61625 24.27 2.97122 24.4363 3.25924C24.6027 3.54726 24.9103 3.72478 25.243 3.72478H45.7299C46.0626 3.72478 46.3702 3.5473 46.5365 3.25924C46.7029 2.97118 46.7029 2.61622 46.5365 2.32795C46.3702 2.03989 46.0626 1.86241 45.7299 1.86241Z" fill="white"/>
<path d="M6.65674 40H4.93018L5.22852 38.3687L6.73291 38.3813C7.20687 38.3856 7.57926 38.2819 7.8501 38.0703C8.12516 37.8587 8.32829 37.5794 8.45947 37.2324C8.59066 36.8812 8.68587 36.4982 8.74512 36.0835L8.94824 34.6553C8.9821 34.4141 9.00749 34.1644 9.02441 33.9062C9.04134 33.6481 9.02653 33.4069 8.97998 33.1826C8.93343 32.9583 8.83187 32.7764 8.67529 32.6367C8.51872 32.4928 8.28174 32.4146 7.96436 32.4019L6.21875 32.3955L6.50439 30.7578L8.04053 30.7642C8.59066 30.7769 9.0625 30.8911 9.45605 31.1069C9.85384 31.3228 10.1712 31.6126 10.4082 31.9766C10.6494 32.3405 10.8123 32.7531 10.897 33.2144C10.9858 33.6714 10.9985 34.1538 10.9351 34.6616L10.7192 36.0898C10.6388 36.6357 10.4928 37.1478 10.2812 37.626C10.0697 38.0999 9.79248 38.5168 9.44971 38.8765C9.10693 39.2319 8.7028 39.5091 8.2373 39.708C7.77181 39.9069 7.24495 40.0042 6.65674 40ZM7.67871 30.7578L6.0791 40H4.11768L5.71094 30.7578H7.67871ZM14.312 38.3433L14.8008 35.2329C14.8092 35.1187 14.8156 35.0023 14.8198 34.8838C14.8241 34.7653 14.8008 34.6637 14.75 34.5791C14.6992 34.4945 14.5977 34.4521 14.4453 34.4521C14.2845 34.4479 14.1639 34.4839 14.0835 34.5601C14.0031 34.632 13.9438 34.7272 13.9058 34.8457C13.8719 34.9642 13.8444 35.0869 13.8232 35.2139L11.9316 35.2266C11.9528 34.8711 12.0396 34.5537 12.1919 34.2744C12.3485 33.9951 12.5516 33.7603 12.8013 33.5698C13.0509 33.3794 13.3324 33.2355 13.6455 33.1382C13.9587 33.0409 14.2845 32.9943 14.623 32.9985C15.0758 33.007 15.4652 33.1043 15.791 33.2905C16.1211 33.4767 16.3644 33.7391 16.521 34.0776C16.6818 34.4119 16.7389 34.8097 16.6924 35.271L16.21 38.3052C16.1719 38.5591 16.1401 38.8236 16.1147 39.0986C16.0936 39.3695 16.1211 39.6318 16.1973 39.8857V40L14.3564 40.0063C14.276 39.7397 14.238 39.4647 14.2422 39.1812C14.2464 38.8976 14.2697 38.6183 14.312 38.3433ZM14.9722 35.8042L14.7881 36.9087L14.2866 36.9023C14.1258 36.9066 13.9819 36.9404 13.855 37.0039C13.7323 37.0632 13.6243 37.1457 13.5312 37.2515C13.4424 37.353 13.3704 37.4715 13.3154 37.6069C13.2646 37.7381 13.2287 37.8799 13.2075 38.0322C13.1948 38.1296 13.1906 38.229 13.1948 38.3306C13.1991 38.4321 13.2244 38.5168 13.271 38.5845C13.3218 38.6479 13.4128 38.6818 13.5439 38.686C13.6794 38.686 13.8084 38.6564 13.9312 38.5972C14.0581 38.5337 14.1639 38.4512 14.2485 38.3496C14.3332 38.248 14.384 38.1296 14.4009 37.9941L14.623 38.7749C14.5469 38.9526 14.4622 39.124 14.3691 39.2891C14.276 39.4541 14.166 39.6022 14.0391 39.7334C13.9163 39.8604 13.7725 39.9598 13.6074 40.0317C13.4424 40.1079 13.2456 40.1439 13.0171 40.1396C12.6447 40.1354 12.3252 40.0423 12.0586 39.8604C11.792 39.6742 11.591 39.4329 11.4556 39.1367C11.3244 38.8363 11.2673 38.5041 11.2842 38.1401C11.3011 37.7254 11.3942 37.37 11.5635 37.0737C11.737 36.7775 11.9613 36.5363 12.2363 36.3501C12.5156 36.1597 12.8288 36.02 13.1758 35.9312C13.527 35.8423 13.891 35.7979 14.2676 35.7979L14.9722 35.8042ZM20.3042 38.1021C20.3338 37.9497 20.2936 37.8228 20.1836 37.7212C20.0736 37.6196 19.9445 37.5308 19.7964 37.4546C19.6483 37.3784 19.5256 37.3107 19.4282 37.2515C19.2039 37.1414 18.9924 37.0208 18.7935 36.8896C18.5946 36.7585 18.4189 36.6104 18.2666 36.4453C18.1143 36.2803 17.9958 36.092 17.9111 35.8804C17.8307 35.6646 17.799 35.4191 17.8159 35.144C17.8328 34.8013 17.9132 34.4987 18.0571 34.2363C18.2052 33.9697 18.3978 33.7433 18.6348 33.5571C18.8717 33.3709 19.1383 33.2313 19.4346 33.1382C19.735 33.0409 20.0482 32.9943 20.374 32.9985C20.8141 33.007 21.2056 33.098 21.5483 33.2715C21.8911 33.4408 22.1598 33.6883 22.3545 34.0142C22.5492 34.3358 22.6444 34.7209 22.6401 35.1694H20.7612C20.7655 35.0382 20.7612 34.9134 20.7485 34.7949C20.7401 34.6722 20.702 34.5706 20.6343 34.4902C20.5666 34.4098 20.4502 34.3717 20.2852 34.376C20.1582 34.3802 20.0461 34.4141 19.9487 34.4775C19.8514 34.5368 19.7731 34.6172 19.7139 34.7188C19.6546 34.8203 19.6123 34.9282 19.5869 35.0425C19.5658 35.1483 19.5763 35.2435 19.6187 35.3281C19.6652 35.4085 19.7266 35.4826 19.8027 35.5503C19.8831 35.6138 19.9699 35.6709 20.063 35.7217C20.1561 35.7725 20.2407 35.8148 20.3169 35.8486C20.647 35.9967 20.9517 36.1618 21.231 36.3438C21.5103 36.5257 21.7324 36.75 21.8975 37.0166C22.0625 37.279 22.1366 37.6154 22.1196 38.0259C22.0985 38.3813 22.0075 38.6924 21.8467 38.959C21.6901 39.2214 21.4827 39.4414 21.2246 39.6191C20.9707 39.7926 20.6872 39.9217 20.374 40.0063C20.0609 40.0952 19.7435 40.1354 19.4219 40.127C18.9775 40.1143 18.5819 40.0127 18.2349 39.8223C17.8921 39.6318 17.6213 39.3695 17.4224 39.0352C17.2277 38.6966 17.1283 38.3052 17.124 37.8608L18.8887 37.8672C18.8887 38.0322 18.9014 38.1825 18.9268 38.3179C18.9564 38.4491 19.0177 38.5549 19.1108 38.6353C19.2082 38.7114 19.3499 38.7495 19.5361 38.7495C19.6758 38.7495 19.7985 38.7241 19.9043 38.6733C20.0101 38.6226 20.0968 38.5485 20.1646 38.4512C20.2323 38.3538 20.2788 38.2375 20.3042 38.1021ZM26.3218 30.25L24.627 40H22.7354L24.4302 30.25H26.3218ZM25.0332 36.3438L24.6206 36.3628C24.6545 36.0243 24.7179 35.6603 24.811 35.271C24.9084 34.8774 25.048 34.505 25.23 34.1538C25.4162 33.8026 25.6574 33.519 25.9536 33.3032C26.2498 33.0874 26.6117 32.9858 27.0391 32.9985C27.4072 33.007 27.7013 33.0959 27.9214 33.2651C28.1414 33.4344 28.3044 33.6523 28.4102 33.9189C28.516 34.1855 28.5794 34.4754 28.6006 34.7886C28.6217 35.0975 28.6154 35.4022 28.5815 35.7026L27.8643 40H25.979L26.6963 35.6836C26.709 35.5228 26.7153 35.3577 26.7153 35.1885C26.7153 35.0192 26.6794 34.8732 26.6074 34.7505C26.5355 34.6278 26.3937 34.5643 26.1821 34.5601C25.9536 34.5516 25.7674 34.6087 25.6235 34.7314C25.4797 34.8499 25.3696 35.0023 25.2935 35.1885C25.2173 35.3747 25.1602 35.5715 25.1221 35.7788C25.0882 35.9819 25.0586 36.1702 25.0332 36.3438ZM30.7271 30.25H32.606L31.1841 38.4575L30.7588 40H29.0322L30.7271 30.25ZM34.9292 36.2739L34.8657 36.8135C34.8192 37.1943 34.7451 37.5837 34.6436 37.9814C34.5462 38.3792 34.4023 38.7453 34.2119 39.0796C34.0215 39.4097 33.7676 39.672 33.4502 39.8667C33.137 40.0614 32.7477 40.1502 32.2822 40.1333C31.8971 40.1164 31.5924 39.9937 31.3682 39.7651C31.1481 39.5324 30.9873 39.2425 30.8857 38.8955C30.7884 38.5485 30.7292 38.193 30.708 37.8291C30.6868 37.4609 30.6826 37.1351 30.6953 36.8516L30.7651 36.2993C30.8201 35.9862 30.9027 35.6392 31.0127 35.2583C31.1227 34.8732 31.2708 34.5072 31.457 34.1602C31.6475 33.8132 31.8844 33.5296 32.168 33.3096C32.4515 33.0895 32.79 32.9837 33.1836 32.9922C33.6364 33.0049 33.9897 33.1149 34.2437 33.3223C34.4976 33.5254 34.6795 33.792 34.7896 34.1221C34.9038 34.4521 34.9652 34.8055 34.9736 35.1821C34.9821 35.5588 34.9673 35.9227 34.9292 36.2739ZM32.9932 36.8325L33.0503 36.2866C33.0588 36.1512 33.0757 35.9883 33.1011 35.7979C33.1307 35.6032 33.1413 35.4149 33.1328 35.2329C33.1243 35.0467 33.0757 34.8901 32.9868 34.7632C32.9022 34.6362 32.7541 34.5685 32.5425 34.5601C32.3351 34.5516 32.1616 34.5939 32.022 34.687C31.8823 34.7759 31.7702 34.8965 31.6855 35.0488C31.6009 35.2012 31.5374 35.3662 31.4951 35.5439C31.4528 35.7217 31.4232 35.8952 31.4062 36.0645L31.2729 37.061C31.2518 37.2599 31.237 37.4736 31.2285 37.7021C31.2201 37.9307 31.2624 38.1296 31.3555 38.2988C31.4528 38.4639 31.6369 38.5527 31.9077 38.5654C32.1489 38.5781 32.3394 38.5316 32.479 38.4258C32.6187 38.3158 32.7202 38.1719 32.7837 37.9941C32.8514 37.8122 32.8979 37.6196 32.9233 37.4165C32.9487 37.2091 32.972 37.0145 32.9932 36.8325ZM35.6338 36.8389L35.6973 36.3057C35.7523 35.8656 35.8581 35.4466 36.0146 35.0488C36.1712 34.651 36.3786 34.2956 36.6367 33.9824C36.8991 33.665 37.2165 33.4196 37.5889 33.2461C37.9613 33.0726 38.3908 32.9922 38.8774 33.0049C39.3429 33.0133 39.7301 33.1128 40.0391 33.3032C40.3522 33.4894 40.5977 33.7391 40.7754 34.0522C40.9574 34.3654 41.078 34.7166 41.1372 35.106C41.1965 35.491 41.2049 35.8888 41.1626 36.2993L41.0991 36.8452C41.0441 37.2769 40.9383 37.6937 40.7817 38.0957C40.6294 38.4935 40.4199 38.849 40.1533 39.1621C39.891 39.471 39.5757 39.7122 39.2075 39.8857C38.8394 40.0592 38.4119 40.1396 37.9253 40.127C37.4598 40.1185 37.0705 40.0212 36.7573 39.835C36.4484 39.6445 36.203 39.3949 36.021 39.0859C35.8433 38.7728 35.7227 38.4237 35.6592 38.0386C35.5999 37.6493 35.5915 37.2493 35.6338 36.8389ZM37.5952 36.2993L37.5317 36.8516C37.5233 36.9785 37.5085 37.1351 37.4873 37.3213C37.4704 37.5075 37.4704 37.6958 37.4873 37.8862C37.5042 38.0767 37.5571 38.2375 37.646 38.3687C37.7391 38.4956 37.8851 38.5633 38.084 38.5718C38.3125 38.5887 38.4966 38.54 38.6362 38.4258C38.7801 38.3115 38.8901 38.1634 38.9663 37.9814C39.0467 37.7952 39.1038 37.6006 39.1377 37.3975C39.1715 37.1943 39.1991 37.006 39.2202 36.8325L39.2837 36.2866C39.2922 36.1639 39.3049 36.0073 39.3218 35.8169C39.3387 35.6265 39.3366 35.4382 39.3154 35.252C39.2985 35.0658 39.2435 34.9071 39.1504 34.7759C39.0615 34.6447 38.9176 34.5728 38.7188 34.5601C38.4987 34.5474 38.3188 34.6003 38.1792 34.7188C38.0438 34.833 37.9359 34.9832 37.8555 35.1694C37.7751 35.3556 37.7158 35.5503 37.6777 35.7534C37.6396 35.9565 37.6121 36.1385 37.5952 36.2993ZM44.6792 38.3433L45.168 35.2329C45.1764 35.1187 45.1828 35.0023 45.187 34.8838C45.1912 34.7653 45.168 34.6637 45.1172 34.5791C45.0664 34.4945 44.9648 34.4521 44.8125 34.4521C44.6517 34.4479 44.5311 34.4839 44.4507 34.5601C44.3703 34.632 44.311 34.7272 44.2729 34.8457C44.2391 34.9642 44.2116 35.0869 44.1904 35.2139L42.2988 35.2266C42.32 34.8711 42.4067 34.5537 42.5591 34.2744C42.7157 33.9951 42.9188 33.7603 43.1685 33.5698C43.4181 33.3794 43.6995 33.2355 44.0127 33.1382C44.3258 33.0409 44.6517 32.9943 44.9902 32.9985C45.443 33.007 45.8324 33.1043 46.1582 33.2905C46.4883 33.4767 46.7316 33.7391 46.8882 34.0776C47.049 34.4119 47.1061 34.8097 47.0596 35.271L46.5771 38.3052C46.5391 38.5591 46.5073 38.8236 46.4819 39.0986C46.4608 39.3695 46.4883 39.6318 46.5645 39.8857V40L44.7236 40.0063C44.6432 39.7397 44.6051 39.4647 44.6094 39.1812C44.6136 38.8976 44.6369 38.6183 44.6792 38.3433ZM45.3394 35.8042L45.1553 36.9087L44.6538 36.9023C44.493 36.9066 44.3491 36.9404 44.2222 37.0039C44.0994 37.0632 43.9915 37.1457 43.8984 37.2515C43.8096 37.353 43.7376 37.4715 43.6826 37.6069C43.6318 37.7381 43.5959 37.8799 43.5747 38.0322C43.562 38.1296 43.5578 38.229 43.562 38.3306C43.5662 38.4321 43.5916 38.5168 43.6382 38.5845C43.689 38.6479 43.7799 38.6818 43.9111 38.686C44.0465 38.686 44.1756 38.6564 44.2983 38.5972C44.4253 38.5337 44.5311 38.4512 44.6157 38.3496C44.7004 38.248 44.7511 38.1296 44.7681 37.9941L44.9902 38.7749C44.9141 38.9526 44.8294 39.124 44.7363 39.2891C44.6432 39.4541 44.5332 39.6022 44.4062 39.7334C44.2835 39.8604 44.1396 39.9598 43.9746 40.0317C43.8096 40.1079 43.6128 40.1439 43.3843 40.1396C43.0119 40.1354 42.6924 40.0423 42.4258 39.8604C42.1592 39.6742 41.9582 39.4329 41.8228 39.1367C41.6916 38.8363 41.6344 38.5041 41.6514 38.1401C41.6683 37.7254 41.7614 37.37 41.9307 37.0737C42.1042 36.7775 42.3285 36.5363 42.6035 36.3501C42.8828 36.1597 43.196 36.02 43.543 35.9312C43.8942 35.8423 44.2581 35.7979 44.6348 35.7979L45.3394 35.8042ZM50.208 34.8521L49.3193 40H47.4341L48.6274 33.1318H50.3857L50.208 34.8521ZM52.0488 33.0811L51.7886 34.96C51.6912 34.9388 51.5918 34.924 51.4902 34.9155C51.3929 34.9028 51.2956 34.8944 51.1982 34.8901C50.9824 34.8859 50.7962 34.9219 50.6396 34.998C50.4873 35.0742 50.3582 35.1779 50.2524 35.3091C50.1509 35.4403 50.0684 35.5905 50.0049 35.7598C49.9414 35.929 49.8927 36.1089 49.8589 36.2993L49.5479 36.1089C49.5817 35.8381 49.6346 35.527 49.7065 35.1758C49.7785 34.8203 49.8843 34.4754 50.0239 34.1411C50.1636 33.8026 50.3498 33.5254 50.5825 33.3096C50.8195 33.0938 51.12 32.9858 51.4839 32.9858C51.5854 32.9901 51.6807 33.0007 51.7695 33.0176C51.8626 33.0345 51.9557 33.0557 52.0488 33.0811ZM55.0259 38.3496L56.4351 30.25H58.3203L56.6318 40L54.937 40.0063L55.0259 38.3496ZM51.9092 36.8516L51.9727 36.312C52.0192 35.9396 52.0954 35.5566 52.2012 35.1631C52.307 34.7653 52.4572 34.4014 52.6519 34.0713C52.8507 33.737 53.1068 33.4725 53.4199 33.2778C53.7331 33.0789 54.1203 32.988 54.5815 33.0049C54.9624 33.0176 55.2607 33.1445 55.4766 33.3857C55.6966 33.627 55.8574 33.9232 55.959 34.2744C56.0605 34.6257 56.1219 34.9875 56.1431 35.3599C56.1642 35.728 56.1685 36.0496 56.1558 36.3247L56.0859 36.8833C56.0309 37.1795 55.9463 37.516 55.832 37.8926C55.7178 38.2692 55.5633 38.631 55.3687 38.978C55.174 39.3208 54.9349 39.6022 54.6514 39.8223C54.3721 40.0423 54.042 40.146 53.6611 40.1333C53.221 40.1248 52.874 40.0148 52.6201 39.8032C52.3704 39.5916 52.1885 39.3208 52.0742 38.9907C51.96 38.6564 51.8944 38.3009 51.8774 37.9243C51.8605 37.5477 51.8711 37.1901 51.9092 36.8516ZM53.8579 36.312L53.8008 36.8579C53.7881 36.9891 53.7712 37.1499 53.75 37.3403C53.7288 37.5265 53.7246 37.7127 53.7373 37.8989C53.75 38.0851 53.7987 38.2417 53.8833 38.3687C53.9679 38.4914 54.1118 38.557 54.3149 38.5654C54.5815 38.5739 54.791 38.502 54.9434 38.3496C55.0999 38.1973 55.2163 38.0068 55.2925 37.7783C55.3687 37.5498 55.4173 37.3276 55.4385 37.1118L55.5781 36.1089C55.5866 35.9735 55.5951 35.8211 55.6035 35.6519C55.6162 35.4784 55.6099 35.3112 55.5845 35.1504C55.5591 34.9896 55.4977 34.8563 55.4004 34.7505C55.3073 34.6405 55.1613 34.5791 54.9624 34.5664C54.7381 34.5537 54.554 34.6045 54.4102 34.7188C54.2705 34.8288 54.1626 34.9769 54.0864 35.1631C54.0145 35.3451 53.9616 35.5397 53.9277 35.7471C53.8981 35.9502 53.8748 36.1385 53.8579 36.312Z" fill="white"/>
</svg>
