<svg width="66" height="46" viewBox="0 0 66 46" fill="none" xmlns="http://www.w3.org/2000/svg">
<path d="M32.9948 27.9998C29.756 27.9987 26.6175 26.8746 24.115 24.8192C21.6118 22.7635 19.899 19.9037 19.2682 16.7268C18.6373 13.55 19.1273 10.2523 20.655 7.39687C22.1827 4.54094 24.6532 2.30283 27.646 1.06417C30.6387 -0.174392 33.9683 -0.337155 37.0675 0.603941C40.1667 1.54485 42.8437 3.53149 44.6426 6.22483C46.4413 8.91844 47.2505 12.1523 46.9322 15.3759C46.6141 18.599 45.1881 21.612 42.8974 23.9019C41.5968 25.2016 40.053 26.2326 38.354 26.9357C36.6552 27.6389 34.8344 28.0006 32.9957 28L32.9948 27.9998ZM32.9948 2.54518C30.3447 2.54284 27.7758 3.45947 25.7257 5.13908C23.6755 6.81869 22.2715 9.1571 21.7522 11.756C21.2332 14.3548 21.6312 17.0532 22.8786 19.3912C24.1259 21.7294 26.1456 23.5628 28.5933 24.5787C31.041 25.5949 33.7652 25.7306 36.3015 24.9631C38.8383 24.1957 41.0302 22.5723 42.5038 20.3698C43.9775 18.1673 44.6421 15.5219 44.3841 12.8846C44.126 10.2468 42.9614 7.78032 41.0886 5.90549C40.0282 4.83864 38.7669 3.99237 37.3777 3.41577C35.9883 2.83901 34.4985 2.54326 32.9943 2.54539L32.9948 2.54518ZM40.1985 12.7271H34.2679V6.79644C34.2679 6.34175 34.0254 5.92158 33.6317 5.69424C33.2379 5.46689 32.7526 5.46689 32.3588 5.69424C31.9651 5.92158 31.7226 6.34175 31.7226 6.79644V12.7271H25.792C25.3373 12.7271 24.9171 12.9696 24.6898 13.3634C24.4625 13.7571 24.4625 14.2425 24.6898 14.6362C24.9171 15.03 25.3373 15.2724 25.792 15.2724H31.7226V21.2031C31.7226 21.6578 31.9651 22.078 32.3588 22.3053C32.7526 22.5327 33.2379 22.5327 33.6317 22.3053C34.0254 22.078 34.2679 21.6578 34.2679 21.2031V15.2724H40.1985C40.6532 15.2724 41.0733 15.03 41.3007 14.6362C41.528 14.2425 41.528 13.7571 41.3007 13.3634C41.0733 12.9696 40.6532 12.7271 40.1985 12.7271Z" fill="#66C7F4"/>
<path d="M8.70117 35.6494L5.6543 43H3.50879L7.89502 33.7578H9.24707L8.70117 35.6494ZM8.85986 43L8.33936 35.4717L8.41553 33.7578H9.7041L10.9038 43H8.85986ZM9.51367 39.5532L9.22168 41.1846H5.2417L5.53369 39.5532H9.51367ZM15.0615 41.3496L16.4707 33.25H18.356L16.6675 43L14.9727 43.0063L15.0615 41.3496ZM11.9448 39.8516L12.0083 39.312C12.0549 38.9396 12.131 38.5566 12.2368 38.1631C12.3426 37.7653 12.4928 37.4014 12.6875 37.0713C12.8864 36.737 13.1424 36.4725 13.4556 36.2778C13.7687 36.0789 14.1559 35.988 14.6172 36.0049C14.998 36.0176 15.2964 36.1445 15.5122 36.3857C15.7323 36.627 15.8931 36.9232 15.9946 37.2744C16.0962 37.6257 16.1576 37.9875 16.1787 38.3599C16.1999 38.728 16.2041 39.0496 16.1914 39.3247L16.1216 39.8833C16.0666 40.1795 15.9819 40.516 15.8677 40.8926C15.7534 41.2692 15.599 41.631 15.4043 41.978C15.2096 42.3208 14.9705 42.6022 14.687 42.8223C14.4077 43.0423 14.0776 43.146 13.6968 43.1333C13.2567 43.1248 12.9097 43.0148 12.6558 42.8032C12.4061 42.5916 12.2241 42.3208 12.1099 41.9907C11.9956 41.6564 11.93 41.3009 11.9131 40.9243C11.8962 40.5477 11.9067 40.1901 11.9448 39.8516ZM13.8936 39.312L13.8364 39.8579C13.8237 39.9891 13.8068 40.1499 13.7856 40.3403C13.7645 40.5265 13.7603 40.7127 13.7729 40.8989C13.7856 41.0851 13.8343 41.2417 13.9189 41.3687C14.0036 41.4914 14.1475 41.557 14.3506 41.5654C14.6172 41.5739 14.8267 41.502 14.979 41.3496C15.1356 41.1973 15.252 41.0068 15.3281 40.7783C15.4043 40.5498 15.453 40.3276 15.4741 40.1118L15.6138 39.1089C15.6222 38.9735 15.6307 38.8211 15.6392 38.6519C15.6519 38.4784 15.6455 38.3112 15.6201 38.1504C15.5947 37.9896 15.5334 37.8563 15.436 37.7505C15.3429 37.6405 15.1969 37.5791 14.998 37.5664C14.7738 37.5537 14.5897 37.6045 14.4458 37.7188C14.3062 37.8288 14.1982 37.9769 14.1221 38.1631C14.0501 38.3451 13.9972 38.5397 13.9634 38.7471C13.9338 38.9502 13.9105 39.1385 13.8936 39.312ZM21.3076 41.3496L22.7168 33.25H24.6021L22.9136 43L21.2188 43.0063L21.3076 41.3496ZM18.1909 39.8516L18.2544 39.312C18.3009 38.9396 18.3771 38.5566 18.4829 38.1631C18.5887 37.7653 18.7389 37.4014 18.9336 37.0713C19.1325 36.737 19.3885 36.4725 19.7017 36.2778C20.0148 36.0789 20.402 35.988 20.8633 36.0049C21.2441 36.0176 21.5425 36.1445 21.7583 36.3857C21.9784 36.627 22.1392 36.9232 22.2407 37.2744C22.3423 37.6257 22.4036 37.9875 22.4248 38.3599C22.446 38.728 22.4502 39.0496 22.4375 39.3247L22.3677 39.8833C22.3127 40.1795 22.228 40.516 22.1138 40.8926C21.9995 41.2692 21.8451 41.631 21.6504 41.978C21.4557 42.3208 21.2166 42.6022 20.9331 42.8223C20.6538 43.0423 20.3237 43.146 19.9429 43.1333C19.5028 43.1248 19.1558 43.0148 18.9019 42.8032C18.6522 42.5916 18.4702 42.3208 18.356 41.9907C18.2417 41.6564 18.1761 41.3009 18.1592 40.9243C18.1423 40.5477 18.1528 40.1901 18.1909 39.8516ZM20.1396 39.312L20.0825 39.8579C20.0698 39.9891 20.0529 40.1499 20.0317 40.3403C20.0106 40.5265 20.0063 40.7127 20.019 40.8989C20.0317 41.0851 20.0804 41.2417 20.165 41.3687C20.2497 41.4914 20.3936 41.557 20.5967 41.5654C20.8633 41.5739 21.0728 41.502 21.2251 41.3496C21.3817 41.1973 21.498 41.0068 21.5742 40.7783C21.6504 40.5498 21.6991 40.3276 21.7202 40.1118L21.8599 39.1089C21.8683 38.9735 21.8768 38.8211 21.8853 38.6519C21.8979 38.4784 21.8916 38.3112 21.8662 38.1504C21.8408 37.9896 21.7795 37.8563 21.6821 37.7505C21.589 37.6405 21.443 37.5791 21.2441 37.5664C21.0199 37.5537 20.8358 37.6045 20.6919 37.7188C20.5522 37.8288 20.4443 37.9769 20.3682 38.1631C20.2962 38.3451 20.2433 38.5397 20.2095 38.7471C20.1799 38.9502 20.1566 39.1385 20.1396 39.312ZM32.4985 41.3687L32.2129 43H28.4551L28.7344 41.3687H32.4985ZM30.7085 33.7578L29.1089 43H27.1475L28.7407 33.7578H30.7085ZM36.2754 36.1318L35.0884 43H33.1968L34.3901 36.1318H36.2754ZM34.6123 34.3926C34.6123 34.0964 34.7096 33.8509 34.9043 33.6562C35.1032 33.4574 35.3486 33.3558 35.6406 33.3516C35.9242 33.3473 36.1632 33.4362 36.3579 33.6182C36.5568 33.8001 36.6541 34.0371 36.6499 34.3291C36.6541 34.6211 36.5589 34.8644 36.3643 35.0591C36.1696 35.2537 35.9242 35.3532 35.6279 35.3574C35.3444 35.3659 35.1053 35.2791 34.9106 35.0972C34.716 34.9152 34.6165 34.6803 34.6123 34.3926ZM39.5889 41.1021C39.6185 40.9497 39.5783 40.8228 39.4683 40.7212C39.3582 40.6196 39.2292 40.5308 39.0811 40.4546C38.9329 40.3784 38.8102 40.3107 38.7129 40.2515C38.4886 40.1414 38.277 40.0208 38.0781 39.8896C37.8792 39.7585 37.7036 39.6104 37.5513 39.4453C37.3989 39.2803 37.2804 39.092 37.1958 38.8804C37.1154 38.6646 37.0837 38.4191 37.1006 38.144C37.1175 37.8013 37.1979 37.4987 37.3418 37.2363C37.4899 36.9697 37.6825 36.7433 37.9194 36.5571C38.1564 36.3709 38.423 36.2313 38.7192 36.1382C39.0197 36.0409 39.3328 35.9943 39.6587 35.9985C40.0988 36.007 40.4902 36.098 40.833 36.2715C41.1758 36.4408 41.4445 36.6883 41.6392 37.0142C41.8338 37.3358 41.929 37.7209 41.9248 38.1694H40.0459C40.0501 38.0382 40.0459 37.9134 40.0332 37.7949C40.0247 37.6722 39.9867 37.5706 39.9189 37.4902C39.8512 37.4098 39.7349 37.3717 39.5698 37.376C39.4429 37.3802 39.3307 37.4141 39.2334 37.4775C39.1361 37.5368 39.0578 37.6172 38.9985 37.7188C38.9393 37.8203 38.897 37.9282 38.8716 38.0425C38.8504 38.1483 38.861 38.2435 38.9033 38.3281C38.9499 38.4085 39.0112 38.4826 39.0874 38.5503C39.1678 38.6138 39.2546 38.6709 39.3477 38.7217C39.4408 38.7725 39.5254 38.8148 39.6016 38.8486C39.9316 38.9967 40.2363 39.1618 40.5156 39.3438C40.7949 39.5257 41.0171 39.75 41.1821 40.0166C41.3472 40.279 41.4212 40.6154 41.4043 41.0259C41.3831 41.3813 41.2922 41.6924 41.1313 41.959C40.9748 42.2214 40.7674 42.4414 40.5093 42.6191C40.2554 42.7926 39.9718 42.9217 39.6587 43.0063C39.3455 43.0952 39.0282 43.1354 38.7065 43.127C38.2622 43.1143 37.8665 43.0127 37.5195 42.8223C37.1768 42.6318 36.9059 42.3695 36.707 42.0352C36.5124 41.6966 36.4129 41.3052 36.4087 40.8608L38.1733 40.8672C38.1733 41.0322 38.186 41.1825 38.2114 41.3179C38.241 41.4491 38.3024 41.5549 38.3955 41.6353C38.4928 41.7114 38.6346 41.7495 38.8208 41.7495C38.9604 41.7495 39.0832 41.7241 39.189 41.6733C39.2948 41.6226 39.3815 41.5485 39.4492 41.4512C39.5169 41.3538 39.5635 41.2375 39.5889 41.1021ZM46.3047 36.1318L46.0508 37.5474H42.5786L42.8325 36.1318H46.3047ZM43.8354 34.4307H45.7207L44.6289 40.8481C44.612 40.9582 44.6035 41.064 44.6035 41.1655C44.6035 41.2629 44.6268 41.3454 44.6733 41.4131C44.7241 41.4766 44.8151 41.5125 44.9463 41.521C45.0225 41.521 45.0965 41.5168 45.1685 41.5083C45.2404 41.4998 45.3102 41.4914 45.3779 41.4829L45.2256 42.9556C45.0732 43.0148 44.9167 43.0571 44.7559 43.0825C44.5951 43.1079 44.43 43.1206 44.2607 43.1206C43.8587 43.1121 43.5392 43.0148 43.3022 42.8286C43.0653 42.6382 42.9002 42.3885 42.8071 42.0796C42.7183 41.7664 42.6908 41.4258 42.7246 41.0576L43.8354 34.4307ZM49.1484 36.1318L47.9614 43H46.0698L47.2632 36.1318H49.1484ZM47.4854 34.3926C47.4854 34.0964 47.5827 33.8509 47.7773 33.6562C47.9762 33.4574 48.2217 33.3558 48.5137 33.3516C48.7972 33.3473 49.0363 33.4362 49.231 33.6182C49.4299 33.8001 49.5272 34.0371 49.5229 34.3291C49.5272 34.6211 49.432 34.8644 49.2373 35.0591C49.0426 35.2537 48.7972 35.3532 48.501 35.3574C48.2174 35.3659 47.9784 35.2791 47.7837 35.0972C47.589 34.9152 47.4896 34.6803 47.4854 34.3926ZM51.9922 37.6997L51.0654 43H49.1738L50.3672 36.1318H52.1318L51.9922 37.6997ZM51.4717 39.3438L51.0845 39.3628C51.1141 39.0031 51.1776 38.6243 51.2749 38.2266C51.3765 37.8288 51.5225 37.4585 51.7129 37.1157C51.9033 36.7729 52.1509 36.4979 52.4556 36.2905C52.7645 36.0832 53.1432 35.9858 53.5918 35.9985C53.9515 36.0112 54.235 36.1022 54.4424 36.2715C54.6497 36.4408 54.8 36.6587 54.8931 36.9253C54.9862 37.1877 55.0369 37.4712 55.0454 37.7759C55.0581 38.0763 55.0496 38.3704 55.02 38.6582L54.2964 43H52.4111L53.1284 38.6392C53.1453 38.4784 53.1517 38.3175 53.1475 38.1567C53.1475 37.9917 53.1094 37.8521 53.0332 37.7378C52.9613 37.6235 52.8216 37.5643 52.6143 37.5601C52.3942 37.5516 52.2144 37.6087 52.0747 37.7314C51.9351 37.8542 51.825 38.0107 51.7446 38.2012C51.6685 38.3916 51.6092 38.5905 51.5669 38.7979C51.5288 39.001 51.4971 39.1829 51.4717 39.3438ZM60.1172 36.1318H61.8374L60.6821 42.9683C60.606 43.5522 60.424 44.0516 60.1362 44.4663C59.8527 44.8853 59.4824 45.2005 59.0254 45.4121C58.5684 45.6279 58.0415 45.7274 57.4448 45.7104C57.1994 45.7062 56.9561 45.6724 56.7148 45.6089C56.4779 45.5496 56.2472 45.4629 56.0229 45.3486C55.7987 45.2344 55.5934 45.099 55.4072 44.9424L56.1943 43.6602C56.3594 43.8294 56.5519 43.9606 56.772 44.0537C56.992 44.151 57.2205 44.2018 57.4575 44.2061C57.7284 44.2188 57.9548 44.1722 58.1367 44.0664C58.3187 43.9606 58.4604 43.8125 58.562 43.6221C58.6678 43.4359 58.744 43.2179 58.7905 42.9683L59.6919 37.6426L60.1172 36.1318ZM55.8135 39.8706L55.877 39.3374C55.9235 38.9481 56.0039 38.5545 56.1182 38.1567C56.2367 37.759 56.3996 37.395 56.6069 37.0649C56.8185 36.7306 57.0872 36.4661 57.4131 36.2715C57.7389 36.0768 58.1346 35.988 58.6001 36.0049C59.0106 36.0176 59.328 36.1382 59.5522 36.3667C59.7765 36.5952 59.9352 36.883 60.0283 37.23C60.1214 37.5728 60.1743 37.9325 60.187 38.3091C60.1997 38.6815 60.1955 39.0221 60.1743 39.3311L60.1045 39.8833C60.0537 40.188 59.9691 40.5308 59.8506 40.9116C59.7363 41.2882 59.584 41.6479 59.3936 41.9907C59.2031 42.3335 58.9661 42.6128 58.6826 42.8286C58.3991 43.0444 58.0605 43.1481 57.667 43.1396C57.2311 43.1312 56.882 43.0233 56.6196 42.8159C56.3573 42.6086 56.1626 42.342 56.0356 42.0161C55.9087 41.686 55.8304 41.3327 55.8008 40.9561C55.7754 40.5794 55.7796 40.2176 55.8135 39.8706ZM57.7622 39.312L57.7051 39.8579C57.6924 40.0018 57.6797 40.1689 57.667 40.3594C57.6543 40.5498 57.6585 40.736 57.6797 40.918C57.7051 41.0957 57.7664 41.2459 57.8638 41.3687C57.9611 41.4914 58.1156 41.557 58.3271 41.5654C58.6022 41.5781 58.8223 41.5104 58.9873 41.3623C59.1566 41.2142 59.2793 41.0259 59.3555 40.7974C59.4359 40.5688 59.4909 40.3403 59.5205 40.1118L59.6538 39.1089C59.6665 38.9608 59.6771 38.8021 59.6855 38.6328C59.694 38.4593 59.6813 38.2943 59.6475 38.1377C59.6178 37.9769 59.5501 37.8457 59.4443 37.7441C59.3428 37.6383 59.1925 37.5791 58.9937 37.5664C58.7609 37.5537 58.5684 37.6045 58.416 37.7188C58.2637 37.8288 58.1431 37.9748 58.0542 38.1567C57.9696 38.3345 57.904 38.527 57.8574 38.7344C57.8151 38.9417 57.7834 39.1343 57.7622 39.312Z" fill="#66C7F4"/>
</svg>
