<?xml version="1.0" encoding="UTF-8"?>
<svg width="700pt" height="700pt" version="1.1" viewBox="0 0 700 700" xmlns="http://www.w3.org/2000/svg">
 <g fill-rule="evenodd">
  <path d="m350 58.332c-57.988 0-105 47.012-105 105 0 57.992 47.012 105 105 105 57.992 0 105-47.008 105-105 0-57.988-47.008-105-105-105zm-128.33 105c0-70.875 57.457-128.33 128.33-128.33 70.879 0 128.33 57.457 128.33 128.33 0 70.879-57.453 128.34-128.33 128.34-70.875 0-128.33-57.457-128.33-128.34z"/>
  <path d="m350 291.67c-122.42 0-221.67 99.242-221.67 221.66h-23.332c0-135.31 109.69-245 245-245s245 109.69 245 245h-23.332c0-122.42-99.246-221.66-221.67-221.66z"/>
 </g>
</svg>
