<svg width="183" height="39" viewBox="0 0 183 39" fill="none" xmlns="http://www.w3.org/2000/svg">
<path d="M16.2354 28.4053C16.333 27.7217 16.3249 27.1195 16.2109 26.5986C16.097 26.0778 15.8773 25.6221 15.5518 25.2314C15.2425 24.8245 14.8438 24.4583 14.3555 24.1328C13.8835 23.8073 13.3626 23.498 12.793 23.2051C11.6048 22.6354 10.498 22.0088 9.47266 21.3252C8.44727 20.6253 7.54395 19.8359 6.7627 18.957C5.98145 18.0781 5.39551 17.0771 5.00488 15.9541C4.61426 14.8311 4.45964 13.5534 4.54102 12.1211C4.65495 10.526 5.06185 9.09375 5.76172 7.82422C6.47786 6.53841 7.41374 5.45605 8.56934 4.57715C9.74121 3.69824 11.0352 3.03906 12.4512 2.59961C13.8835 2.14388 15.3646 1.93229 16.8945 1.96484C19.0592 2.01367 20.874 2.52637 22.3389 3.50293C23.8037 4.47949 24.8942 5.79785 25.6104 7.45801C26.3428 9.10189 26.6764 10.9411 26.6113 12.9756H19.1162C19.1325 12.2432 19.0918 11.5107 18.9941 10.7783C18.9128 10.0296 18.6605 9.41113 18.2373 8.92285C17.8304 8.41829 17.1631 8.15788 16.2354 8.1416C15.4541 8.12533 14.7624 8.30436 14.1602 8.67871C13.5742 9.05306 13.0941 9.54948 12.7197 10.168C12.3454 10.7702 12.1012 11.4375 11.9873 12.1699C11.9059 12.7721 11.9629 13.3174 12.1582 13.8057C12.3698 14.2777 12.6628 14.709 13.0371 15.0996C13.4115 15.474 13.8346 15.8158 14.3066 16.125C14.7786 16.4342 15.2507 16.6947 15.7227 16.9062C16.9759 17.5085 18.1152 18.1676 19.1406 18.8838C20.166 19.5999 21.0368 20.4137 21.7529 21.3252C22.4854 22.2204 23.0225 23.2458 23.3643 24.4014C23.7061 25.557 23.8281 26.8753 23.7305 28.3564C23.6003 30.0003 23.2015 31.457 22.5342 32.7266C21.8831 33.9961 21.0124 35.0703 19.9219 35.9492C18.8477 36.8118 17.6107 37.4629 16.2109 37.9023C14.8275 38.3418 13.3382 38.5452 11.7432 38.5127C10.0016 38.4639 8.44727 38.1465 7.08008 37.5605C5.72917 36.9583 4.58984 36.1283 3.66211 35.0703C2.75065 33.9961 2.05892 32.7428 1.58691 31.3105C1.13118 29.8783 0.94401 28.3076 1.02539 26.5986L8.59375 26.623C8.54492 27.3717 8.53678 28.096 8.56934 28.7959C8.61816 29.4795 8.76465 30.0898 9.00879 30.627C9.25293 31.1478 9.63542 31.5628 10.1562 31.8721C10.6771 32.1813 11.3851 32.3359 12.2803 32.3359C13.0778 32.3359 13.7451 32.165 14.2822 31.8232C14.8356 31.4652 15.2669 30.9932 15.5762 30.4072C15.9017 29.805 16.1214 29.1377 16.2354 28.4053ZM27.5879 25.8418L27.832 23.791C28.0436 22.0983 28.4505 20.487 29.0527 18.957C29.6549 17.4271 30.4525 16.0599 31.4453 14.8555C32.4544 13.6348 33.6751 12.6908 35.1074 12.0234C36.5397 11.3561 38.1917 11.0469 40.0635 11.0957C41.8538 11.1283 43.3431 11.5107 44.5312 12.2432C45.7357 12.9593 46.6797 13.9196 47.3633 15.124C48.0632 16.3285 48.527 17.6794 48.7549 19.1768C48.9827 20.6579 49.0153 22.1878 48.8525 23.7666L48.6084 25.8662C48.3968 27.5264 47.9899 29.1296 47.3877 30.6758C46.8018 32.2057 45.9961 33.5729 44.9707 34.7773C43.9616 35.9655 42.749 36.8932 41.333 37.5605C39.917 38.2279 38.2731 38.5371 36.4014 38.4883C34.611 38.4557 33.1136 38.0814 31.9092 37.3652C30.721 36.6328 29.777 35.6725 29.0771 34.4844C28.3936 33.2799 27.9297 31.9372 27.6855 30.4561C27.4577 28.9587 27.4251 27.4206 27.5879 25.8418ZM35.1318 23.7666L34.8877 25.8906C34.8551 26.3789 34.7982 26.9811 34.7168 27.6973C34.6517 28.4134 34.6517 29.1377 34.7168 29.8701C34.7819 30.6025 34.9854 31.221 35.3271 31.7256C35.6852 32.2139 36.2467 32.4743 37.0117 32.5068C37.8906 32.5719 38.5986 32.3848 39.1357 31.9453C39.6891 31.5059 40.1123 30.9362 40.4053 30.2363C40.7145 29.5202 40.9342 28.7715 41.0645 27.9902C41.1947 27.209 41.3005 26.4847 41.3818 25.8174L41.626 23.7178C41.6585 23.2458 41.7074 22.6436 41.7725 21.9111C41.8376 21.1787 41.8294 20.4544 41.748 19.7383C41.6829 19.0221 41.4714 18.4118 41.1133 17.9072C40.7715 17.4027 40.2181 17.126 39.4531 17.0771C38.6068 17.0283 37.915 17.2318 37.3779 17.6875C36.8571 18.127 36.4421 18.7048 36.1328 19.4209C35.8236 20.137 35.5957 20.8857 35.4492 21.667C35.3027 22.4482 35.1969 23.1481 35.1318 23.7666ZM64.3066 0.5L57.8125 38H50.5371L57.0557 0.5H64.3066ZM73.7061 38.4883C71.9482 38.4557 70.4264 38.1302 69.1406 37.5117C67.8711 36.877 66.8376 36.0062 66.04 34.8994C65.2588 33.7926 64.7135 32.5231 64.4043 31.0908C64.0951 29.6585 64.0137 28.1123 64.1602 26.4521L64.4775 23.9619C64.6891 22.2204 65.0798 20.5684 65.6494 19.0059C66.2354 17.4434 67.0247 16.0599 68.0176 14.8555C69.0104 13.6348 70.2148 12.6908 71.6309 12.0234C73.0632 11.3561 74.7559 11.0387 76.709 11.0713C78.4993 11.1201 79.9642 11.5107 81.1035 12.2432C82.2591 12.9756 83.138 13.944 83.7402 15.1484C84.3587 16.3529 84.7493 17.7038 84.9121 19.2012C85.0749 20.6823 85.0667 22.196 84.8877 23.7422L84.375 27.2334H66.8457L67.7246 22.2285L77.9297 22.2529L78.0762 21.4473C78.1738 20.8125 78.2145 20.1696 78.1982 19.5186C78.1982 18.8512 78.0436 18.2897 77.7344 17.834C77.4414 17.3783 76.888 17.1178 76.0742 17.0527C75.1465 17.0202 74.4059 17.2236 73.8525 17.6631C73.3154 18.1025 72.9085 18.6885 72.6318 19.4209C72.3551 20.137 72.1517 20.902 72.0215 21.7158C71.9076 22.5133 71.8099 23.262 71.7285 23.9619L71.4355 26.4766C71.3542 27.1764 71.3135 27.8682 71.3135 28.5518C71.3135 29.2354 71.403 29.8701 71.582 30.4561C71.7611 31.0257 72.0785 31.4977 72.5342 31.8721C72.9899 32.2301 73.6572 32.4255 74.5361 32.458C75.6104 32.4906 76.6113 32.3034 77.5391 31.8965C78.4831 31.4733 79.3457 30.9036 80.127 30.1875L82.6904 34.8018C82.0231 35.6969 81.1849 36.4212 80.1758 36.9746C79.1829 37.5117 78.1169 37.9023 76.9775 38.1465C75.8545 38.3906 74.764 38.5046 73.7061 38.4883ZM96.875 17.5166L93.3105 38H86.0596L90.6494 11.584H97.4121L96.875 17.5166ZM94.873 23.8887L93.2373 23.9863C93.3512 22.5703 93.6035 21.1055 93.9941 19.5918C94.3848 18.0618 94.9544 16.6458 95.7031 15.3438C96.4518 14.0254 97.4202 12.9756 98.6084 12.1943C99.8128 11.3968 101.278 11.0225 103.003 11.0713C104.256 11.1038 105.249 11.4212 105.981 12.0234C106.73 12.6094 107.284 13.3662 107.642 14.2939C108 15.2217 108.211 16.2227 108.276 17.2969C108.358 18.3548 108.341 19.3802 108.228 20.373L105.298 38H98.0469L100.806 21.3008C100.871 20.7637 100.92 20.1696 100.952 19.5186C101.001 18.8675 100.911 18.306 100.684 17.834C100.472 17.362 99.9837 17.1097 99.2188 17.0771C98.4049 17.0446 97.7376 17.2643 97.2168 17.7363C96.696 18.2083 96.2728 18.8187 95.9473 19.5674C95.638 20.2998 95.402 21.0566 95.2393 21.8379C95.0765 22.6191 94.9544 23.3027 94.873 23.8887ZM107.031 23.5469L104.98 23.7666C105.094 22.3831 105.33 20.9427 105.688 19.4453C106.063 17.9479 106.608 16.5645 107.324 15.2949C108.04 14.0091 108.984 12.9756 110.156 12.1943C111.328 11.4131 112.769 11.0387 114.478 11.0713C115.861 11.1038 116.951 11.4456 117.749 12.0967C118.563 12.7314 119.149 13.5615 119.507 14.5869C119.865 15.596 120.076 16.6865 120.142 17.8584C120.207 19.0303 120.182 20.1696 120.068 21.2764L117.285 38H110.01L112.769 21.252C112.817 20.7311 112.866 20.1452 112.915 19.4941C112.964 18.8431 112.874 18.2816 112.646 17.8096C112.419 17.3376 111.93 17.0934 111.182 17.0771C110.384 17.0771 109.733 17.2969 109.229 17.7363C108.74 18.1758 108.341 18.7373 108.032 19.4209C107.739 20.1045 107.52 20.8206 107.373 21.5693C107.243 22.318 107.129 22.9772 107.031 23.5469ZM134.058 31.6279L135.938 19.665C135.97 19.2256 135.994 18.778 136.011 18.3223C136.027 17.8665 135.938 17.4759 135.742 17.1504C135.547 16.8249 135.156 16.6621 134.57 16.6621C133.952 16.6458 133.488 16.7842 133.179 17.0771C132.869 17.3538 132.642 17.7201 132.495 18.1758C132.365 18.6315 132.259 19.1035 132.178 19.5918L124.902 19.6406C124.984 18.2734 125.317 17.0527 125.903 15.9785C126.506 14.9043 127.287 14.001 128.247 13.2686C129.207 12.5361 130.29 11.9827 131.494 11.6084C132.699 11.234 133.952 11.055 135.254 11.0713C136.995 11.1038 138.493 11.4782 139.746 12.1943C141.016 12.9105 141.951 13.9196 142.554 15.2217C143.172 16.5075 143.392 18.0374 143.213 19.8115L141.357 31.4814C141.211 32.458 141.089 33.4753 140.991 34.5332C140.91 35.5749 141.016 36.584 141.309 37.5605V38L134.229 38.0244C133.919 36.999 133.773 35.9411 133.789 34.8506C133.805 33.7601 133.895 32.6859 134.058 31.6279ZM136.597 21.8623L135.889 26.1104L133.96 26.0859C133.341 26.1022 132.788 26.2324 132.3 26.4766C131.828 26.7044 131.413 27.0218 131.055 27.4287C130.713 27.8193 130.436 28.2751 130.225 28.7959C130.029 29.3005 129.891 29.8457 129.81 30.4316C129.761 30.806 129.744 31.1885 129.761 31.5791C129.777 31.9697 129.875 32.2952 130.054 32.5557C130.249 32.7998 130.599 32.93 131.104 32.9463C131.624 32.9463 132.121 32.8324 132.593 32.6045C133.081 32.3604 133.488 32.043 133.813 31.6523C134.139 31.2617 134.334 30.806 134.399 30.2852L135.254 33.2881C134.961 33.9717 134.635 34.6309 134.277 35.2656C133.919 35.9004 133.496 36.4701 133.008 36.9746C132.536 37.4629 131.982 37.8454 131.348 38.1221C130.713 38.415 129.956 38.5534 129.077 38.5371C127.645 38.5208 126.416 38.1628 125.391 37.4629C124.365 36.7467 123.592 35.819 123.071 34.6797C122.567 33.5241 122.347 32.2464 122.412 30.8467C122.477 29.2516 122.835 27.8844 123.486 26.7451C124.154 25.6058 125.016 24.6781 126.074 23.9619C127.148 23.2295 128.353 22.6924 129.688 22.3506C131.038 22.0088 132.438 21.8379 133.887 21.8379L136.597 21.8623ZM160.913 11.584L159.937 17.0283H146.582L147.559 11.584H160.913ZM151.416 5.04102H158.667L154.468 29.7236C154.403 30.1468 154.37 30.5537 154.37 30.9443C154.37 31.3187 154.46 31.6361 154.639 31.8965C154.834 32.1406 155.184 32.279 155.688 32.3115C155.981 32.3115 156.266 32.2952 156.543 32.2627C156.82 32.2301 157.088 32.1976 157.349 32.165L156.763 37.8291C156.177 38.057 155.575 38.2197 154.956 38.3174C154.338 38.415 153.703 38.4639 153.052 38.4639C151.506 38.4313 150.277 38.057 149.365 37.3408C148.454 36.6084 147.819 35.6481 147.461 34.46C147.119 33.2555 147.013 31.9453 147.144 30.5293L151.416 5.04102ZM170.728 38.4883C168.97 38.4557 167.448 38.1302 166.162 37.5117C164.893 36.877 163.859 36.0062 163.062 34.8994C162.28 33.7926 161.735 32.5231 161.426 31.0908C161.117 29.6585 161.035 28.1123 161.182 26.4521L161.499 23.9619C161.711 22.2204 162.101 20.5684 162.671 19.0059C163.257 17.4434 164.046 16.0599 165.039 14.8555C166.032 13.6348 167.236 12.6908 168.652 12.0234C170.085 11.3561 171.777 11.0387 173.73 11.0713C175.521 11.1201 176.986 11.5107 178.125 12.2432C179.281 12.9756 180.16 13.944 180.762 15.1484C181.38 16.3529 181.771 17.7038 181.934 19.2012C182.096 20.6823 182.088 22.196 181.909 23.7422L181.396 27.2334H163.867L164.746 22.2285L174.951 22.2529L175.098 21.4473C175.195 20.8125 175.236 20.1696 175.22 19.5186C175.22 18.8512 175.065 18.2897 174.756 17.834C174.463 17.3783 173.91 17.1178 173.096 17.0527C172.168 17.0202 171.427 17.2236 170.874 17.6631C170.337 18.1025 169.93 18.6885 169.653 19.4209C169.377 20.137 169.173 20.902 169.043 21.7158C168.929 22.5133 168.831 23.262 168.75 23.9619L168.457 26.4766C168.376 27.1764 168.335 27.8682 168.335 28.5518C168.335 29.2354 168.424 29.8701 168.604 30.4561C168.783 31.0257 169.1 31.4977 169.556 31.8721C170.011 32.2301 170.679 32.4255 171.558 32.458C172.632 32.4906 173.633 32.3034 174.561 31.8965C175.505 31.4733 176.367 30.9036 177.148 30.1875L179.712 34.8018C179.045 35.6969 178.206 36.4212 177.197 36.9746C176.204 37.5117 175.138 37.9023 173.999 38.1465C172.876 38.3906 171.785 38.5046 170.728 38.4883Z" fill="#30838C"/>
</svg>
