<svg width="88" height="19" viewBox="0 0 88 19" fill="none" xmlns="http://www.w3.org/2000/svg">
<path d="M7.80078 13.3945C7.84766 13.0664 7.84375 12.7773 7.78906 12.5273C7.73438 12.2773 7.62891 12.0586 7.47266 11.8711C7.32422 11.6758 7.13281 11.5 6.89844 11.3438C6.67188 11.1875 6.42188 11.0391 6.14844 10.8984C5.57812 10.625 5.04688 10.3242 4.55469 9.99609C4.0625 9.66016 3.62891 9.28125 3.25391 8.85938C2.87891 8.4375 2.59766 7.95703 2.41016 7.41797C2.22266 6.87891 2.14844 6.26562 2.1875 5.57812C2.24219 4.8125 2.4375 4.125 2.77344 3.51562C3.11719 2.89844 3.56641 2.37891 4.12109 1.95703C4.68359 1.53516 5.30469 1.21875 5.98438 1.00781C6.67188 0.789062 7.38281 0.6875 8.11719 0.703125C9.15625 0.726562 10.0273 0.972656 10.7305 1.44141C11.4336 1.91016 11.957 2.54297 12.3008 3.33984C12.6523 4.12891 12.8125 5.01172 12.7812 5.98828H9.18359C9.19141 5.63672 9.17188 5.28516 9.125 4.93359C9.08594 4.57422 8.96484 4.27734 8.76172 4.04297C8.56641 3.80078 8.24609 3.67578 7.80078 3.66797C7.42578 3.66016 7.09375 3.74609 6.80469 3.92578C6.52344 4.10547 6.29297 4.34375 6.11328 4.64062C5.93359 4.92969 5.81641 5.25 5.76172 5.60156C5.72266 5.89062 5.75 6.15234 5.84375 6.38672C5.94531 6.61328 6.08594 6.82031 6.26562 7.00781C6.44531 7.1875 6.64844 7.35156 6.875 7.5C7.10156 7.64844 7.32812 7.77344 7.55469 7.875C8.15625 8.16406 8.70312 8.48047 9.19531 8.82422C9.6875 9.16797 10.1055 9.55859 10.4492 9.99609C10.8008 10.4258 11.0586 10.918 11.2227 11.4727C11.3867 12.0273 11.4453 12.6602 11.3984 13.3711C11.3359 14.1602 11.1445 14.8594 10.8242 15.4688C10.5117 16.0781 10.0938 16.5938 9.57031 17.0156C9.05469 17.4297 8.46094 17.7422 7.78906 17.9531C7.125 18.1641 6.41016 18.2617 5.64453 18.2461C4.80859 18.2227 4.0625 18.0703 3.40625 17.7891C2.75781 17.5 2.21094 17.1016 1.76562 16.5938C1.32812 16.0781 0.996094 15.4766 0.769531 14.7891C0.550781 14.1016 0.460938 13.3477 0.5 12.5273L4.13281 12.5391C4.10938 12.8984 4.10547 13.2461 4.12109 13.582C4.14453 13.9102 4.21484 14.2031 4.33203 14.4609C4.44922 14.7109 4.63281 14.9102 4.88281 15.0586C5.13281 15.207 5.47266 15.2812 5.90234 15.2812C6.28516 15.2812 6.60547 15.1992 6.86328 15.0352C7.12891 14.8633 7.33594 14.6367 7.48438 14.3555C7.64062 14.0664 7.74609 13.7461 7.80078 13.3945ZM13.25 12.1641L13.3672 11.1797C13.4688 10.3672 13.6641 9.59375 13.9531 8.85938C14.2422 8.125 14.625 7.46875 15.1016 6.89062C15.5859 6.30469 16.1719 5.85156 16.8594 5.53125C17.5469 5.21094 18.3398 5.0625 19.2383 5.08594C20.0977 5.10156 20.8125 5.28516 21.3828 5.63672C21.9609 5.98047 22.4141 6.44141 22.7422 7.01953C23.0781 7.59766 23.3008 8.24609 23.4102 8.96484C23.5195 9.67578 23.5352 10.4102 23.457 11.168L23.3398 12.1758C23.2383 12.9727 23.043 13.7422 22.7539 14.4844C22.4727 15.2188 22.0859 15.875 21.5938 16.4531C21.1094 17.0234 20.5273 17.4688 19.8477 17.7891C19.168 18.1094 18.3789 18.2578 17.4805 18.2344C16.6211 18.2188 15.9023 18.0391 15.3242 17.6953C14.7539 17.3438 14.3008 16.8828 13.9648 16.3125C13.6367 15.7344 13.4141 15.0898 13.2969 14.3789C13.1875 13.6602 13.1719 12.9219 13.25 12.1641ZM16.8711 11.168L16.7539 12.1875C16.7383 12.4219 16.7109 12.7109 16.6719 13.0547C16.6406 13.3984 16.6406 13.7461 16.6719 14.0977C16.7031 14.4492 16.8008 14.7461 16.9648 14.9883C17.1367 15.2227 17.4062 15.3477 17.7734 15.3633C18.1953 15.3945 18.5352 15.3047 18.793 15.0938C19.0586 14.8828 19.2617 14.6094 19.4023 14.2734C19.5508 13.9297 19.6562 13.5703 19.7188 13.1953C19.7812 12.8203 19.832 12.4727 19.8711 12.1523L19.9883 11.1445C20.0039 10.918 20.0273 10.6289 20.0586 10.2773C20.0898 9.92578 20.0859 9.57812 20.0469 9.23438C20.0156 8.89062 19.9141 8.59766 19.7422 8.35547C19.5781 8.11328 19.3125 7.98047 18.9453 7.95703C18.5391 7.93359 18.207 8.03125 17.9492 8.25C17.6992 8.46094 17.5 8.73828 17.3516 9.08203C17.2031 9.42578 17.0938 9.78516 17.0234 10.1602C16.9531 10.5352 16.9023 10.8711 16.8711 11.168ZM30.875 0L27.7578 18H24.2656L27.3945 0H30.875ZM35.3867 18.2344C34.543 18.2188 33.8125 18.0625 33.1953 17.7656C32.5859 17.4609 32.0898 17.043 31.707 16.5117C31.332 15.9805 31.0703 15.3711 30.9219 14.6836C30.7734 13.9961 30.7344 13.2539 30.8047 12.457L30.957 11.2617C31.0586 10.4258 31.2461 9.63281 31.5195 8.88281C31.8008 8.13281 32.1797 7.46875 32.6562 6.89062C33.1328 6.30469 33.7109 5.85156 34.3906 5.53125C35.0781 5.21094 35.8906 5.05859 36.8281 5.07422C37.6875 5.09766 38.3906 5.28516 38.9375 5.63672C39.4922 5.98828 39.9141 6.45312 40.2031 7.03125C40.5 7.60938 40.6875 8.25781 40.7656 8.97656C40.8438 9.6875 40.8398 10.4141 40.7539 11.1562L40.5078 12.832H32.0938L32.5156 10.4297L37.4141 10.4414L37.4844 10.0547C37.5312 9.75 37.5508 9.44141 37.543 9.12891C37.543 8.80859 37.4688 8.53906 37.3203 8.32031C37.1797 8.10156 36.9141 7.97656 36.5234 7.94531C36.0781 7.92969 35.7227 8.02734 35.457 8.23828C35.1992 8.44922 35.0039 8.73047 34.8711 9.08203C34.7383 9.42578 34.6406 9.79297 34.5781 10.1836C34.5234 10.5664 34.4766 10.9258 34.4375 11.2617L34.2969 12.4688C34.2578 12.8047 34.2383 13.1367 34.2383 13.4648C34.2383 13.793 34.2812 14.0977 34.3672 14.3789C34.4531 14.6523 34.6055 14.8789 34.8242 15.0586C35.043 15.2305 35.3633 15.3242 35.7852 15.3398C36.3008 15.3555 36.7812 15.2656 37.2266 15.0703C37.6797 14.8672 38.0938 14.5938 38.4688 14.25L39.6992 16.4648C39.3789 16.8945 38.9766 17.2422 38.4922 17.5078C38.0156 17.7656 37.5039 17.9531 36.957 18.0703C36.418 18.1875 35.8945 18.2422 35.3867 18.2344ZM46.5078 8.16797L44.7969 18H41.3164L43.5195 5.32031H46.7656L46.5078 8.16797ZM45.5469 11.2266L44.7617 11.2734C44.8164 10.5938 44.9375 9.89062 45.125 9.16406C45.3125 8.42969 45.5859 7.75 45.9453 7.125C46.3047 6.49219 46.7695 5.98828 47.3398 5.61328C47.918 5.23047 48.6211 5.05078 49.4492 5.07422C50.0508 5.08984 50.5273 5.24219 50.8789 5.53125C51.2383 5.8125 51.5039 6.17578 51.6758 6.62109C51.8477 7.06641 51.9492 7.54688 51.9805 8.0625C52.0195 8.57031 52.0117 9.0625 51.957 9.53906L50.5508 18H47.0703L48.3945 9.98438C48.4258 9.72656 48.4492 9.44141 48.4648 9.12891C48.4883 8.81641 48.4453 8.54688 48.3359 8.32031C48.2344 8.09375 48 7.97266 47.6328 7.95703C47.2422 7.94141 46.9219 8.04688 46.6719 8.27344C46.4219 8.5 46.2188 8.79297 46.0625 9.15234C45.9141 9.50391 45.8008 9.86719 45.7227 10.2422C45.6445 10.6172 45.5859 10.9453 45.5469 11.2266ZM51.3828 11.0625L50.3984 11.168C50.4531 10.5039 50.5664 9.8125 50.7383 9.09375C50.918 8.375 51.1797 7.71094 51.5234 7.10156C51.8672 6.48438 52.3203 5.98828 52.8828 5.61328C53.4453 5.23828 54.1367 5.05859 54.957 5.07422C55.6211 5.08984 56.1445 5.25391 56.5273 5.56641C56.918 5.87109 57.1992 6.26953 57.3711 6.76172C57.543 7.24609 57.6445 7.76953 57.6758 8.33203C57.707 8.89453 57.6953 9.44141 57.6406 9.97266L56.3047 18H52.8125L54.1367 9.96094C54.1602 9.71094 54.1836 9.42969 54.207 9.11719C54.2305 8.80469 54.1875 8.53516 54.0781 8.30859C53.9688 8.08203 53.7344 7.96484 53.375 7.95703C52.9922 7.95703 52.6797 8.0625 52.4375 8.27344C52.2031 8.48438 52.0117 8.75391 51.8633 9.08203C51.7227 9.41016 51.6172 9.75391 51.5469 10.1133C51.4844 10.4727 51.4297 10.7891 51.3828 11.0625ZM64.3555 14.9414L65.2578 9.19922C65.2734 8.98828 65.2852 8.77344 65.293 8.55469C65.3008 8.33594 65.2578 8.14844 65.1641 7.99219C65.0703 7.83594 64.8828 7.75781 64.6016 7.75781C64.3047 7.75 64.082 7.81641 63.9336 7.95703C63.7852 8.08984 63.6758 8.26562 63.6055 8.48438C63.543 8.70312 63.4922 8.92969 63.4531 9.16406L59.9609 9.1875C60 8.53125 60.1602 7.94531 60.4414 7.42969C60.7305 6.91406 61.1055 6.48047 61.5664 6.12891C62.0273 5.77734 62.5469 5.51172 63.125 5.33203C63.7031 5.15234 64.3047 5.06641 64.9297 5.07422C65.7656 5.08984 66.4844 5.26953 67.0859 5.61328C67.6953 5.95703 68.1445 6.44141 68.4336 7.06641C68.7305 7.68359 68.8359 8.41797 68.75 9.26953L67.8594 14.8711C67.7891 15.3398 67.7305 15.8281 67.6836 16.3359C67.6445 16.8359 67.6953 17.3203 67.8359 17.7891V18L64.4375 18.0117C64.2891 17.5195 64.2188 17.0117 64.2266 16.4883C64.2344 15.9648 64.2773 15.4492 64.3555 14.9414ZM65.5742 10.2539L65.2344 12.293L64.3086 12.2812C64.0117 12.2891 63.7461 12.3516 63.5117 12.4688C63.2852 12.5781 63.0859 12.7305 62.9141 12.9258C62.75 13.1133 62.6172 13.332 62.5156 13.582C62.4219 13.8242 62.3555 14.0859 62.3164 14.3672C62.293 14.5469 62.2852 14.7305 62.293 14.918C62.3008 15.1055 62.3477 15.2617 62.4336 15.3867C62.5273 15.5039 62.6953 15.5664 62.9375 15.5742C63.1875 15.5742 63.4258 15.5195 63.6523 15.4102C63.8867 15.293 64.082 15.1406 64.2383 14.9531C64.3945 14.7656 64.4883 14.5469 64.5195 14.2969L64.9297 15.7383C64.7891 16.0664 64.6328 16.3828 64.4609 16.6875C64.2891 16.9922 64.0859 17.2656 63.8516 17.5078C63.625 17.7422 63.3594 17.9258 63.0547 18.0586C62.75 18.1992 62.3867 18.2656 61.9648 18.2578C61.2773 18.25 60.6875 18.0781 60.1953 17.7422C59.7031 17.3984 59.332 16.9531 59.082 16.4062C58.8398 15.8516 58.7344 15.2383 58.7656 14.5664C58.7969 13.8008 58.9688 13.1445 59.2812 12.5977C59.6016 12.0508 60.0156 11.6055 60.5234 11.2617C61.0391 10.9102 61.6172 10.6523 62.2578 10.4883C62.9062 10.3242 63.5781 10.2422 64.2734 10.2422L65.5742 10.2539ZM77.2461 5.32031L76.7773 7.93359H70.3672L70.8359 5.32031H77.2461ZM72.6875 2.17969H76.168L74.1523 14.0273C74.1211 14.2305 74.1055 14.4258 74.1055 14.6133C74.1055 14.793 74.1484 14.9453 74.2344 15.0703C74.3281 15.1875 74.4961 15.2539 74.7383 15.2695C74.8789 15.2695 75.0156 15.2617 75.1484 15.2461C75.2812 15.2305 75.4102 15.2148 75.5352 15.1992L75.2539 17.918C74.9727 18.0273 74.6836 18.1055 74.3867 18.1523C74.0898 18.1992 73.7852 18.2227 73.4727 18.2227C72.7305 18.207 72.1406 18.0273 71.7031 17.6836C71.2656 17.332 70.9609 16.8711 70.7891 16.3008C70.625 15.7227 70.5742 15.0938 70.6367 14.4141L72.6875 2.17969ZM81.957 18.2344C81.1133 18.2188 80.3828 18.0625 79.7656 17.7656C79.1562 17.4609 78.6602 17.043 78.2773 16.5117C77.9023 15.9805 77.6406 15.3711 77.4922 14.6836C77.3438 13.9961 77.3047 13.2539 77.375 12.457L77.5273 11.2617C77.6289 10.4258 77.8164 9.63281 78.0898 8.88281C78.3711 8.13281 78.75 7.46875 79.2266 6.89062C79.7031 6.30469 80.2812 5.85156 80.9609 5.53125C81.6484 5.21094 82.4609 5.05859 83.3984 5.07422C84.2578 5.09766 84.9609 5.28516 85.5078 5.63672C86.0625 5.98828 86.4844 6.45312 86.7734 7.03125C87.0703 7.60938 87.2578 8.25781 87.3359 8.97656C87.4141 9.6875 87.4102 10.4141 87.3242 11.1562L87.0781 12.832H78.6641L79.0859 10.4297L83.9844 10.4414L84.0547 10.0547C84.1016 9.75 84.1211 9.44141 84.1133 9.12891C84.1133 8.80859 84.0391 8.53906 83.8906 8.32031C83.75 8.10156 83.4844 7.97656 83.0938 7.94531C82.6484 7.92969 82.293 8.02734 82.0273 8.23828C81.7695 8.44922 81.5742 8.73047 81.4414 9.08203C81.3086 9.42578 81.2109 9.79297 81.1484 10.1836C81.0938 10.5664 81.0469 10.9258 81.0078 11.2617L80.8672 12.4688C80.8281 12.8047 80.8086 13.1367 80.8086 13.4648C80.8086 13.793 80.8516 14.0977 80.9375 14.3789C81.0234 14.6523 81.1758 14.8789 81.3945 15.0586C81.6133 15.2305 81.9336 15.3242 82.3555 15.3398C82.8711 15.3555 83.3516 15.2656 83.7969 15.0703C84.25 14.8672 84.6641 14.5938 85.0391 14.25L86.2695 16.4648C85.9492 16.8945 85.5469 17.2422 85.0625 17.5078C84.5859 17.7656 84.0742 17.9531 83.5273 18.0703C82.9883 18.1875 82.4648 18.2422 81.957 18.2344Z" fill="white"/>
</svg>
